<svg width="280" height="31" viewBox="0 0 280 31" fill="none" xmlns="http://www.w3.org/2000/svg">
<rect width="280" height="31" rx="10" fill="#3494EC"/>
<path d="M122.396 11.64H128.216V12.33H122.396V11.64ZM121.556 17.83H129.726V18.52H121.556V17.83ZM123.556 14.84H124.376V18.08H123.556V14.84ZM127.946 11.64H128.766V12.64C128.766 13.79 128.766 14.97 128.456 16.66L127.626 16.56C127.946 14.96 127.946 13.76 127.946 12.64V11.64ZM125.786 14.84H126.606V18.08H125.786V14.84ZM132.529 15.42H133.359V17.2H132.529V15.42ZM135.569 15.41H136.389V17.2H135.569V15.41ZM130.369 15.09H138.539V15.77H130.369V15.09ZM131.279 16.9H137.529V19.78H136.699V17.57H131.279V16.9ZM134.459 10.95C136.409 10.95 137.639 11.6 137.639 12.68C137.639 13.76 136.409 14.41 134.459 14.41C132.499 14.41 131.279 13.76 131.279 12.68C131.279 11.6 132.499 10.95 134.459 10.95ZM134.459 11.61C133.019 11.61 132.129 12 132.129 12.68C132.129 13.35 133.019 13.75 134.459 13.75C135.889 13.75 136.789 13.35 136.789 12.68C136.789 12 135.889 11.61 134.459 11.61ZM147.602 10.74H148.432V16.03H147.602V10.74ZM148.202 12.91H149.772V13.61H148.202V12.91ZM141.792 11.24H142.612V12.62H145.162V11.24H145.972V15.46H141.792V11.24ZM142.612 13.28V14.79H145.162V13.28H142.612ZM142.782 16.52H148.502V17.19H143.612V19.46H142.782V16.52ZM142.782 18.98H148.682V19.66H142.782V18.98ZM156.825 10.74H157.655V19.78H156.825V10.74ZM154.175 11.71H154.995C154.995 14.33 153.815 16.62 150.795 18.1L150.355 17.43C152.965 16.17 154.175 14.25 154.175 11.85V11.71ZM150.765 11.71H154.535V12.39H150.765V11.71Z" fill="white"/>
</svg>
